{
    "asset" : {
        "generator" : "Khronos glTF Blender I/O v1.5.17",
        "version" : "2.0"
    },
    "scene" : 0,
    "scenes" : [
        {
            "name" : "Scene",
            "nodes" : [
                0,
                1,
                2,
                3
            ]
        }
    ],
    "nodes" : [
        {
            "mesh" : 0,
            "name" : "Cube",
            "scale" : [
                0.7087218761444092,
                0.7087218761444092,
                0.7087218761444092
            ],
            "translation" : [
                0,
                0,
                -0.7987760901451111
            ]
        },
        {
            "name" : "Light",
            "rotation" : [
                0.16907575726509094,
                0.7558803558349609,
                -0.27217137813568115,
                0.570947527885437
            ],
            "translation" : [
                -0.49282073974609375,
                2.836439847946167,
                -0.8574007749557495
            ]
        },
        {
            "name" : "Camera",
            "rotation" : [
                0.483536034822464,
                0.33687159419059753,
                -0.20870360732078552,
                0.7804827094078064
            ],
            "translation" : [
                7.358891487121582,
                4.958309173583984,
                6.925790786743164
            ]
        },
        {
            "mesh" : 1,
            "name" : "Cylinder",
            "rotation" : [
                -0.7071068286895752,
                0,
                0,
                0.7071068286895752
            ],
            "scale" : [
                0.05658850446343422,
                0.04359043762087822,
                0.05658850446343422
            ],
            "translation" : [
                0,
                0,
                0.03830516338348389
            ]
        }
    ],
    "materials" : [
        {
            "doubleSided" : true,
            "name" : "Material.001",
            "pbrMetallicRoughness" : {
                "baseColorFactor" : [
                    0.04129141941666603,
                    0.035549648106098175,
                    0.03517846018075943,
                    1
                ],
                "metallicFactor" : 0.5206611752510071,
                "roughnessFactor" : 0.19421488046646118
            }
        },
        {
            "doubleSided" : true,
            "name" : "Material.002",
            "pbrMetallicRoughness" : {
                "baseColorFactor" : [
                    0.2989313304424286,
                    0.13114628195762634,
                    0.060032427310943604,
                    1
                ],
                "metallicFactor" : 0,
                "roughnessFactor" : 0.913223147392273
            }
        },
        {
            "doubleSided" : true,
            "name" : "Material.003",
            "pbrMetallicRoughness" : {
                "baseColorFactor" : [
                    0.15022540092468262,
                    0.11307685077190399,
                    0.8000000715255737,
                    1
                ],
                "metallicFactor" : 0,
                "roughnessFactor" : 0.5
            }
        }
    ],
    "meshes" : [
        {
            "name" : "Cube",
            "primitives" : [
                {
                    "attributes" : {
                        "POSITION" : 0,
                        "NORMAL" : 1,
                        "TEXCOORD_0" : 2
                    },
                    "indices" : 3,
                    "material" : 0
                }
            ]
        },
        {
            "name" : "Cylinder",
            "primitives" : [
                {
                    "attributes" : {
                        "POSITION" : 4,
                        "NORMAL" : 5,
                        "TEXCOORD_0" : 6
                    },
                    "indices" : 7,
                    "material" : 1
                },
                {
                    "attributes" : {
                        "POSITION" : 8,
                        "NORMAL" : 9,
                        "TEXCOORD_0" : 10
                    },
                    "indices" : 11,
                    "material" : 2
                }
            ]
        }
    ],
    "accessors" : [
        {
            "bufferView" : 0,
            "componentType" : 5126,
            "count" : 12,
            "max" : [
                1,
                0.13251349329948425,
                1.3301883935928345
            ],
            "min" : [
                -1,
                -0.13251349329948425,
                -0.6698116064071655
            ],
            "type" : "VEC3"
        },
        {
            "bufferView" : 1,
            "componentType" : 5126,
            "count" : 12,
            "type" : "VEC3"
        },
        {
            "bufferView" : 2,
            "componentType" : 5126,
            "count" : 12,
            "type" : "VEC2"
        },
        {
            "bufferView" : 3,
            "componentType" : 5123,
            "count" : 18,
            "type" : "SCALAR"
        },
        {
            "bufferView" : 4,
            "componentType" : 5126,
            "count" : 576,
            "max" : [
                1.0001318454742432,
                1,
                1
            ],
            "min" : [
                -1,
                -190.9767608642578,
                -1
            ],
            "type" : "VEC3"
        },
        {
            "bufferView" : 5,
            "componentType" : 5126,
            "count" : 576,
            "type" : "VEC3"
        },
        {
            "bufferView" : 6,
            "componentType" : 5126,
            "count" : 576,
            "type" : "VEC2"
        },
        {
            "bufferView" : 7,
            "componentType" : 5123,
            "count" : 948,
            "type" : "SCALAR"
        },
        {
            "bufferView" : 8,
            "componentType" : 5126,
            "count" : 8,
            "max" : [
                8.952943801879883,
                -166.55679321289062,
                0.21641018986701965
            ],
            "min" : [
                -8.57841682434082,
                -189.31576538085938,
                -1.125921368598938
            ],
            "type" : "VEC3"
        },
        {
            "bufferView" : 9,
            "componentType" : 5126,
            "count" : 8,
            "type" : "VEC3"
        },
        {
            "bufferView" : 10,
            "componentType" : 5126,
            "count" : 8,
            "type" : "VEC2"
        },
        {
            "bufferView" : 11,
            "componentType" : 5123,
            "count" : 12,
            "type" : "SCALAR"
        }
    ],
    "bufferViews" : [
        {
            "buffer" : 0,
            "byteLength" : 144,
            "byteOffset" : 0
        },
        {
            "buffer" : 0,
            "byteLength" : 144,
            "byteOffset" : 144
        },
        {
            "buffer" : 0,
            "byteLength" : 96,
            "byteOffset" : 288
        },
        {
            "buffer" : 0,
            "byteLength" : 36,
            "byteOffset" : 384
        },
        {
            "buffer" : 0,
            "byteLength" : 6912,
            "byteOffset" : 420
        },
        {
            "buffer" : 0,
            "byteLength" : 6912,
            "byteOffset" : 7332
        },
        {
            "buffer" : 0,
            "byteLength" : 4608,
            "byteOffset" : 14244
        },
        {
            "buffer" : 0,
            "byteLength" : 1896,
            "byteOffset" : 18852
        },
        {
            "buffer" : 0,
            "byteLength" : 96,
            "byteOffset" : 20748
        },
        {
            "buffer" : 0,
            "byteLength" : 96,
            "byteOffset" : 20844
        },
        {
            "buffer" : 0,
            "byteLength" : 64,
            "byteOffset" : 20940
        },
        {
            "buffer" : 0,
            "byteLength" : 24,
            "byteOffset" : 21004
        }
    ],
    "buffers" : [
        {
            "byteLength" : 21028,
            "uri" : "data:application/octet-stream;base64,"
        }
    ]
}
