{
    "asset" : {
        "generator" : "Khronos glTF Blender I/O v1.5.17",
        "version" : "2.0"
    },
    "scene" : 0,
    "scenes" : [
        {
            "name" : "Scene",
            "nodes" : [
                0,
                1,
                2,
                3,
                4,
                5,
                6,
                7,
                8,
                9,
                10
            ]
        }
    ],
    "nodes" : [
        {
            "name" : "Camera",
            "rotation" : [
                0.483536034822464,
                0.33687159419059753,
                -0.20870360732078552,
                0.7804827094078064
            ],
            "translation" : [
                7.358891487121582,
                4.958309173583984,
                6.925790786743164
            ]
        },
        {
            "mesh" : 0,
            "name" : "Cube",
            "scale" : [
                1.435982346534729,
                1,
                0.2669082581996918
            ]
        },
        {
            "mesh" : 1,
            "name" : "Cube.001",
            "scale" : [
                1.435982346534729,
                1,
                0.2669082581996918
            ],
            "translation" : [
                2.9885365962982178,
                0,
                0
            ]
        },
        {
            "mesh" : 2,
            "name" : "Cube.002",
            "scale" : [
                1.435982346534729,
                1,
                0.2669082581996918
            ],
            "translation" : [
                5.9770731925964355,
                0,
                0
            ]
        },
        {
            "mesh" : 3,
            "name" : "Cube.003",
            "scale" : [
                1.432464361190796,
                0.28150075674057007,
                1
            ],
            "translation" : [
                0,
                -1.3200675249099731,
                0.8532221913337708
            ]
        },
        {
            "mesh" : 4,
            "name" : "Cube.004",
            "scale" : [
                1.432464361190796,
                0.28150075674057007,
                1
            ],
            "translation" : [
                5.960742473602295,
                -1.3200675249099731,
                0.8532221913337708
            ]
        },
        {
            "mesh" : 5,
            "name" : "Cube.005",
            "scale" : [
                1.432464361190796,
                0.28150075674057007,
                1
            ],
            "translation" : [
                2.9885365962982178,
                -1.3200675249099731,
                0.8532221913337708
            ]
        },
        {
            "mesh" : 6,
            "name" : "Cube.006",
            "scale" : [
                5.032393932342529,
                0.1425115466117859,
                1.2295082807540894
            ],
            "translation" : [
                2.998424768447876,
                -1.7901297807693481,
                0.6736154556274414
            ]
        },
        {
            "mesh" : 7,
            "name" : "Cube.007",
            "scale" : [
                0.31166771054267883,
                0.4649803638458252,
                1.071429967880249
            ],
            "translation" : [
                -1.7491097450256348,
                -1.201794981956482,
                0.8362374901771545
            ]
        },
        {
            "mesh" : 8,
            "name" : "Cube.008",
            "scale" : [
                0.31166771054267883,
                0.4649803638458252,
                1.071429967880249
            ],
            "translation" : [
                7.712584018707275,
                -1.201794981956482,
                0.8362374901771545
            ]
        },
        {
            "mesh" : 9,
            "name" : "Cube.009",
            "scale" : [
                0.3242846727371216,
                0.3242846727371216,
                0.3242846727371216
            ],
            "translation" : [
                -1.6444209814071655,
                -2.261627197265625,
                0
            ]
        }
    ],
    "materials" : [
        {
            "doubleSided" : true,
            "name" : "Material.002",
            "pbrMetallicRoughness" : {
                "baseColorFactor" : [
                    0.7991031408309937,
                    0.04666496068239212,
                    0.06480328738689423,
                    1
                ],
                "metallicFactor" : 0,
                "roughnessFactor" : 0.5
            }
        },
        {
            "doubleSided" : true,
            "name" : "Material.003",
            "pbrMetallicRoughness" : {
                "baseColorFactor" : [
                    0.7991031408309937,
                    0.04666496068239212,
                    0.06480328738689423,
                    1
                ],
                "metallicFactor" : 0,
                "roughnessFactor" : 0.5
            }
        },
        {
            "doubleSided" : true,
            "name" : "Material.001",
            "pbrMetallicRoughness" : {
                "baseColorFactor" : [
                    0.47984057664871216,
                    0.1419495791196823,
                    0.04513183608651161,
                    1
                ],
                "metallicFactor" : 0,
                "roughnessFactor" : 0.5
            }
        }
    ],
    "meshes" : [
        {
            "name" : "Cube.003",
            "primitives" : [
                {
                    "attributes" : {
                        "POSITION" : 0,
                        "NORMAL" : 1,
                        "TEXCOORD_0" : 2
                    },
                    "indices" : 3,
                    "material" : 0
                }
            ]
        },
        {
            "name" : "Cube.004",
            "primitives" : [
                {
                    "attributes" : {
                        "POSITION" : 4,
                        "NORMAL" : 5,
                        "TEXCOORD_0" : 6
                    },
                    "indices" : 3,
                    "material" : 1
                }
            ]
        },
        {
            "name" : "Cube.005",
            "primitives" : [
                {
                    "attributes" : {
                        "POSITION" : 7,
                        "NORMAL" : 8,
                        "TEXCOORD_0" : 9
                    },
                    "indices" : 10,
                    "material" : 0
                },
                {
                    "attributes" : {
                        "POSITION" : 11,
                        "NORMAL" : 12,
                        "TEXCOORD_0" : 13
                    },
                    "indices" : 14,
                    "material" : 1
                }
            ]
        },
        {
            "name" : "Cube.006",
            "primitives" : [
                {
                    "attributes" : {
                        "POSITION" : 15,
                        "NORMAL" : 16,
                        "TEXCOORD_0" : 17
                    },
                    "indices" : 18,
                    "material" : 1
                }
            ]
        },
        {
            "name" : "Cube.007",
            "primitives" : [
                {
                    "attributes" : {
                        "POSITION" : 19,
                        "NORMAL" : 20,
                        "TEXCOORD_0" : 21
                    },
                    "indices" : 18,
                    "material" : 0
                }
            ]
        },
        {
            "name" : "Cube.008",
            "primitives" : [
                {
                    "attributes" : {
                        "POSITION" : 22,
                        "NORMAL" : 23,
                        "TEXCOORD_0" : 24
                    },
                    "indices" : 18,
                    "material" : 1
                }
            ]
        },
        {
            "name" : "Cube.009",
            "primitives" : [
                {
                    "attributes" : {
                        "POSITION" : 25,
                        "NORMAL" : 26,
                        "TEXCOORD_0" : 27
                    },
                    "indices" : 28,
                    "material" : 2
                }
            ]
        },
        {
            "name" : "Cube.010",
            "primitives" : [
                {
                    "attributes" : {
                        "POSITION" : 29,
                        "NORMAL" : 30,
                        "TEXCOORD_0" : 31
                    },
                    "indices" : 32,
                    "material" : 0
                }
            ]
        },
        {
            "name" : "Cube.011",
            "primitives" : [
                {
                    "attributes" : {
                        "POSITION" : 33,
                        "NORMAL" : 34,
                        "TEXCOORD_0" : 35
                    },
                    "indices" : 32,
                    "material" : 0
                }
            ]
        },
        {
            "name" : "Cube.012",
            "primitives" : [
                {
                    "attributes" : {
                        "POSITION" : 36,
                        "NORMAL" : 37,
                        "TEXCOORD_0" : 38
                    },
                    "indices" : 39,
                    "material" : 2
                }
            ]
        }
    ],
    "accessors" : [
        {
            "bufferView" : 0,
            "componentType" : 5126,
            "count" : 20,
            "max" : [
                1,
                1,
                1
            ],
            "min" : [
                -1,
                -1,
                -1
            ],
            "type" : "VEC3"
        },
        {
            "bufferView" : 1,
            "componentType" : 5126,
            "count" : 20,
            "type" : "VEC3"
        },
        {
            "bufferView" : 2,
            "componentType" : 5126,
            "count" : 20,
            "type" : "VEC2"
        },
        {
            "bufferView" : 3,
            "componentType" : 5123,
            "count" : 60,
            "type" : "SCALAR"
        },
        {
            "bufferView" : 4,
            "componentType" : 5126,
            "count" : 20,
            "max" : [
                1,
                1,
                1
            ],
            "min" : [
                -1,
                -1,
                -1
            ],
            "type" : "VEC3"
        },
        {
            "bufferView" : 5,
            "componentType" : 5126,
            "count" : 20,
            "type" : "VEC3"
        },
        {
            "bufferView" : 6,
            "componentType" : 5126,
            "count" : 20,
            "type" : "VEC2"
        },
        {
            "bufferView" : 7,
            "componentType" : 5126,
            "count" : 12,
            "max" : [
                1,
                1,
                1
            ],
            "min" : [
                -1,
                -1,
                -1
            ],
            "type" : "VEC3"
        },
        {
            "bufferView" : 8,
            "componentType" : 5126,
            "count" : 12,
            "type" : "VEC3"
        },
        {
            "bufferView" : 9,
            "componentType" : 5126,
            "count" : 12,
            "type" : "VEC2"
        },
        {
            "bufferView" : 10,
            "componentType" : 5123,
            "count" : 30,
            "type" : "SCALAR"
        },
        {
            "bufferView" : 11,
            "componentType" : 5126,
            "count" : 16,
            "max" : [
                1,
                1,
                1
            ],
            "min" : [
                -1,
                -1,
                -1
            ],
            "type" : "VEC3"
        },
        {
            "bufferView" : 12,
            "componentType" : 5126,
            "count" : 16,
            "type" : "VEC3"
        },
        {
            "bufferView" : 13,
            "componentType" : 5126,
            "count" : 16,
            "type" : "VEC2"
        },
        {
            "bufferView" : 14,
            "componentType" : 5123,
            "count" : 30,
            "type" : "SCALAR"
        },
        {
            "bufferView" : 15,
            "componentType" : 5126,
            "count" : 14,
            "max" : [
                1,
                1,
                1
            ],
            "min" : [
                -1,
                -1,
                -1
            ],
            "type" : "VEC3"
        },
        {
            "bufferView" : 16,
            "componentType" : 5126,
            "count" : 14,
            "type" : "VEC3"
        },
        {
            "bufferView" : 17,
            "componentType" : 5126,
            "count" : 14,
            "type" : "VEC2"
        },
        {
            "bufferView" : 18,
            "componentType" : 5123,
            "count" : 36,
            "type" : "SCALAR"
        },
        {
            "bufferView" : 19,
            "componentType" : 5126,
            "count" : 14,
            "max" : [
                1,
                1,
                1
            ],
            "min" : [
                -1,
                -1,
                -1
            ],
            "type" : "VEC3"
        },
        {
            "bufferView" : 20,
            "componentType" : 5126,
            "count" : 14,
            "type" : "VEC3"
        },
        {
            "bufferView" : 21,
            "componentType" : 5126,
            "count" : 14,
            "type" : "VEC2"
        },
        {
            "bufferView" : 22,
            "componentType" : 5126,
            "count" : 14,
            "max" : [
                1,
                1,
                1
            ],
            "min" : [
                -1,
                -1,
                -1
            ],
            "type" : "VEC3"
        },
        {
            "bufferView" : 23,
            "componentType" : 5126,
            "count" : 14,
            "type" : "VEC3"
        },
        {
            "bufferView" : 24,
            "componentType" : 5126,
            "count" : 14,
            "type" : "VEC2"
        },
        {
            "bufferView" : 25,
            "componentType" : 5126,
            "count" : 44,
            "max" : [
                1,
                16.276592254638672,
                1
            ],
            "min" : [
                -1,
                -1,
                -1
            ],
            "type" : "VEC3"
        },
        {
            "bufferView" : 26,
            "componentType" : 5126,
            "count" : 44,
            "type" : "VEC3"
        },
        {
            "bufferView" : 27,
            "componentType" : 5126,
            "count" : 44,
            "type" : "VEC2"
        },
        {
            "bufferView" : 28,
            "componentType" : 5123,
            "count" : 84,
            "type" : "SCALAR"
        },
        {
            "bufferView" : 29,
            "componentType" : 5126,
            "count" : 27,
            "max" : [
                1,
                1,
                1
            ],
            "min" : [
                -1,
                -1,
                -1
            ],
            "type" : "VEC3"
        },
        {
            "bufferView" : 30,
            "componentType" : 5126,
            "count" : 27,
            "type" : "VEC3"
        },
        {
            "bufferView" : 31,
            "componentType" : 5126,
            "count" : 27,
            "type" : "VEC2"
        },
        {
            "bufferView" : 32,
            "componentType" : 5123,
            "count" : 84,
            "type" : "SCALAR"
        },
        {
            "bufferView" : 33,
            "componentType" : 5126,
            "count" : 27,
            "max" : [
                1,
                1,
                1
            ],
            "min" : [
                -1,
                -1,
                -1
            ],
            "type" : "VEC3"
        },
        {
            "bufferView" : 34,
            "componentType" : 5126,
            "count" : 27,
            "type" : "VEC3"
        },
        {
            "bufferView" : 35,
            "componentType" : 5126,
            "count" : 27,
            "type" : "VEC2"
        },
        {
            "bufferView" : 36,
            "componentType" : 5126,
            "count" : 240,
            "max" : [
                29.271625518798828,
                1.0485104322433472,
                5.3124098777771
            ],
            "min" : [
                -0.7044711112976074,
                -0.18072423338890076,
                -0.9877433776855469
            ],
            "type" : "VEC3"
        },
        {
            "bufferView" : 37,
            "componentType" : 5126,
            "count" : 240,
            "type" : "VEC3"
        },
        {
            "bufferView" : 38,
            "componentType" : 5126,
            "count" : 240,
            "type" : "VEC2"
        },
        {
            "bufferView" : 39,
            "componentType" : 5123,
            "count" : 360,
            "type" : "SCALAR"
        }
    ],
    "bufferViews" : [
        {
            "buffer" : 0,
            "byteLength" : 240,
            "byteOffset" : 0
        },
        {
            "buffer" : 0,
            "byteLength" : 240,
            "byteOffset" : 240
        },
        {
            "buffer" : 0,
            "byteLength" : 160,
            "byteOffset" : 480
        },
        {
            "buffer" : 0,
            "byteLength" : 120,
            "byteOffset" : 640
        },
        {
            "buffer" : 0,
            "byteLength" : 240,
            "byteOffset" : 760
        },
        {
            "buffer" : 0,
            "byteLength" : 240,
            "byteOffset" : 1000
        },
        {
            "buffer" : 0,
            "byteLength" : 160,
            "byteOffset" : 1240
        },
        {
            "buffer" : 0,
            "byteLength" : 144,
            "byteOffset" : 1400
        },
        {
            "buffer" : 0,
            "byteLength" : 144,
            "byteOffset" : 1544
        },
        {
            "buffer" : 0,
            "byteLength" : 96,
            "byteOffset" : 1688
        },
        {
            "buffer" : 0,
            "byteLength" : 60,
            "byteOffset" : 1784
        },
        {
            "buffer" : 0,
            "byteLength" : 192,
            "byteOffset" : 1844
        },
        {
            "buffer" : 0,
            "byteLength" : 192,
            "byteOffset" : 2036
        },
        {
            "buffer" : 0,
            "byteLength" : 128,
            "byteOffset" : 2228
        },
        {
            "buffer" : 0,
            "byteLength" : 60,
            "byteOffset" : 2356
        },
        {
            "buffer" : 0,
            "byteLength" : 168,
            "byteOffset" : 2416
        },
        {
            "buffer" : 0,
            "byteLength" : 168,
            "byteOffset" : 2584
        },
        {
            "buffer" : 0,
            "byteLength" : 112,
            "byteOffset" : 2752
        },
        {
            "buffer" : 0,
            "byteLength" : 72,
            "byteOffset" : 2864
        },
        {
            "buffer" : 0,
            "byteLength" : 168,
            "byteOffset" : 2936
        },
        {
            "buffer" : 0,
            "byteLength" : 168,
            "byteOffset" : 3104
        },
        {
            "buffer" : 0,
            "byteLength" : 112,
            "byteOffset" : 3272
        },
        {
            "buffer" : 0,
            "byteLength" : 168,
            "byteOffset" : 3384
        },
        {
            "buffer" : 0,
            "byteLength" : 168,
            "byteOffset" : 3552
        },
        {
            "buffer" : 0,
            "byteLength" : 112,
            "byteOffset" : 3720
        },
        {
            "buffer" : 0,
            "byteLength" : 528,
            "byteOffset" : 3832
        },
        {
            "buffer" : 0,
            "byteLength" : 528,
            "byteOffset" : 4360
        },
        {
            "buffer" : 0,
            "byteLength" : 352,
            "byteOffset" : 4888
        },
        {
            "buffer" : 0,
            "byteLength" : 168,
            "byteOffset" : 5240
        },
        {
            "buffer" : 0,
            "byteLength" : 324,
            "byteOffset" : 5408
        },
        {
            "buffer" : 0,
            "byteLength" : 324,
            "byteOffset" : 5732
        },
        {
            "buffer" : 0,
            "byteLength" : 216,
            "byteOffset" : 6056
        },
        {
            "buffer" : 0,
            "byteLength" : 168,
            "byteOffset" : 6272
        },
        {
            "buffer" : 0,
            "byteLength" : 324,
            "byteOffset" : 6440
        },
        {
            "buffer" : 0,
            "byteLength" : 324,
            "byteOffset" : 6764
        },
        {
            "buffer" : 0,
            "byteLength" : 216,
            "byteOffset" : 7088
        },
        {
            "buffer" : 0,
            "byteLength" : 2880,
            "byteOffset" : 7304
        },
        {
            "buffer" : 0,
            "byteLength" : 2880,
            "byteOffset" : 10184
        },
        {
            "buffer" : 0,
            "byteLength" : 1920,
            "byteOffset" : 13064
        },
        {
            "buffer" : 0,
            "byteLength" : 720,
            "byteOffset" : 14984
        }
    ],
    "buffers" : [
        {
            "byteLength" : 15704,
            "uri" : "data:application/octet-stream;base64,"
        }
    ]
}
